# AST/ASF file generated using VICON BodyLanguage
# -----------------------------------------------
:version 1.10
:name VICON
:units
  mass 1.0
  length 0.45
  angle deg
:documentation
   .ast/.asf automatically generated from VICON data using
   VICON BodyBuilder and BodyLanguage model FoxedUp or BRILLIANT.MOD
:root
   order TX TY TZ RX RY RZ
   axis XYZ
   position 0 0 0  
   orientation 0 0 0 
:bonedata
  begin
     id 1 
     name lhipjoint
     direction 0.700308 -0.549349 0.455834 
     length 2.59063 
     axis 0 0 0  XYZ
  end
  begin
     id 2 
     name lfemur
     direction 0.34202 -0.939693 0  
     length 6.31066  
     axis 0 0 20  XYZ
    dof rx ry rz
    limits (-160.0 20.0)
           (-70.0 70.0)
           (-60.0 70.0)
  end
  begin
     id 3 
     name ltibia
     direction 0.34202 -0.939693 0   
     length 7.36093   
     axis 0 0 20   XYZ
    dof rx
    limits (-10.0 170.0)
  end
  begin
     id 4 
     name lfoot
     direction 0.0905332 -0.248738 0.96433   
     length 2.0233   
     axis -90 7.62852e-016 20   XYZ
    dof rx rz
    limits (-45.0 90.0)
           (-70.0 20.0)
  end
  begin
     id 5 
     name ltoes
     direction 1.53573e-011 -4.21855e-011 1   
     length 1.01524   
     axis -90 7.62852e-016 20   XYZ
    dof rx
    limits (-90.0 20.0)
  end
  begin
     id 6 
     name rhipjoint
     direction -0.61416 -0.607328 0.503944   
     length 2.34332  
     axis 0 0 0  XYZ 
  end
  begin
     id 7 
     name rfemur
     direction -0.34202 -0.939693 0   
     length 6.58548   
     axis 0 0 -20   XYZ
    dof rx ry rz
    limits (-160.0 20.0)
           (-70.0 70.0)
           (-70.0 60.0)
  end
  begin
     id 8 
     name rtibia
     direction -0.34202 -0.939693 0   
     length 7.20707   
     axis 0 0 -20   XYZ
    dof rx
    limits (-10.0 170.0)
 end
 begin
     id 9 
     name rfoot
     direction -0.136772 -0.375778 0.916561   
     length 1.92184  
     axis -90 -7.62852e-016 -20   XYZ
    dof rx rz
    limits (-45.0 90.0)
           (-20.0 70.0)
  end
  begin
     id 10 
     name rtoes
     direction -1.53535e-011 -4.21828e-011 1   
     length 0.951089   
     axis -90 -7.62852e-016 -20   XYZ
    dof rx
    limits (-90.0 20.0)
  end
  begin
     id 11 
     name lowerback
     direction -0.0444974 0.988086 -0.147332   
     length 1.9609   
     axis 0 0 0   XYZ
    dof rx ry rz
    limits (-20.0 45.0)
           (-30.0 30.0)
           (-30.0 30.0)
  end
  begin
     id 12 
     name upperback
     direction 0.00613146 0.999513 0.0306081   
     length 1.94944   
     axis 0 0 0   XYZ
    dof rx ry rz
    limits (-20.0 45.0)
           (-30.0 30.0)
           (-30.0 30.0)
  end
  begin
     id 13 
     name thorax
     direction 0.0254621 0.994518 0.101418   
     length 2.0119   
     axis 0 0 0   XYZ
    dof rx ry rz
    limits (-20.0 45.0)
           (-30.0 30.0)
           (-30.0 30.0)
  end
  begin
     id 14 
     name lowerneck
     direction 0.0168698 0.977854 0.208608   
     length 1.6375   
     axis 0 0 0   XYZ
    dof rx ry rz
    limits (-20.0 45.0)
           (-30.0 30.0)
           (-30.0 30.0)
  end
  begin
     id 15 
     name upperneck
     direction -0.0283988 0.989338 -0.142843   
     length 1.6851   
     axis 0 0 0   XYZ
    dof rx ry rz
    limits (-20.0 45.0)
           (-30.0 30.0)
           (-30.0 30.0)
  end
  begin
     id 16
     name head
     direction -0.0129422 0.99741 -0.0707489  
     length 1.69029  
     axis 0 0 0   XYZ
    dof rx ry rz
    limits (-20.0 45.0)
           (-30.0 30.0)
           (-30.0 30.0)
  end
  begin
     id 17 
     name lclavicle
     direction 0.820295 0.564628 -0.0911715  
     length 3.16484  
     axis 0 0 0   XYZ
    dof ry rz
    limits (-20.0 10.0)
           (0.0 20.0)
  end
  begin
     id 18 
     name lhumerus
     direction 1 -4.48969e-011 1.00186e-027   
     length 5.17853   
     axis 180 -30 -90   XYZ
    dof rx ry rz
    limits (-60.0 90.0)
           (-90.0 90.0)
           (-90.0 90.0)
  end
  begin
     id 19
     name lradius
     direction 1 -4.48966e-011 -1.52922e-027   
     length 3.40399   
     axis 180 -30 -90   XYZ
    dof rx
    limits (-10.0 170.0)
  end
  begin
     id 20
     name lwrist
     direction 1 -4.48981e-011 -3.80893e-027   
     length 1.70199   
     axis 1.1049e-015 90 90   XYZ
    dof ry
    limits (-180.0 0.0)
 end
  begin
     id 21 
     name lhand
     direction 1 -4.48957e-011 -7.61786e-027   
     length 0.708964   
     axis 4.86085e-015 90 90   XYZ
    dof rx rz
    limits (-90.0 90.0)
           (-45.0 45.0)
  end
  begin
     id 22 
     name lfingers
     direction 1 -4.48929e-011 -1.52357e-026   
     length 0.571585   
     axis 9.7217e-015 90 90   XYZ
    dof rx
    limits (0.0 90.0)
  end
  begin
     id 23
     name lthumb
     direction 0.707107 -6.34905e-011 0.707107   
     length 0.820685   
     axis -90 45 2.85299e-015   XYZ
    dof rx rz
    limits (-45.0 45.0)
           (-45.0 45.0)
  end
  begin
     id 24 
     name rclavicle
     direction -0.858602 0.463947 -0.218075   
     length 3.35137  
     axis 0 0 0   XYZ 
    dof ry rz
    limits (-10.0 20.0)
           (-20.0 0.0)
  end
  begin
     id 25 
     name rhumerus
     direction -1 -4.48969e-011 -1.98511e-027  
     length 5.42351   
     axis 180 30 90   XYZ
    dof rx ry rz
    limits (-90.0 60.0)
           (-90.0 90.0)
           (-90.0 90.0)
  end
  begin
     id 26 
     name rradius
     direction -1 -4.48961e-011 -2.82624e-027   
     length 3.42066   
     axis 180 30 90   XYZ
    dof rx
    limits (-10.0 170.0)
  end
  begin
     id 27 
     name rwrist
     direction -1 -4.48966e-011 -3.80893e-027   
     length 1.71033   
     axis 1.1049e-015 -90 -90   XYZ
    dof ry
    limits (-180.0 0.0)
  end
  begin
     id 28
     name rhand
     direction -1 -4.48964e-011 -7.61786e-027   
     length 0.743608   
     axis 4.86085e-015 -90 -90   XYZ
    dof rx rz
    limits (-90.0 90.0)
           (-45.0 45.0)
  end
  begin
     id 29
     name rfingers
     direction -1 -4.48961e-011 -1.52357e-026   
     length 0.599516   
     axis 9.7217e-015 -90 -90   XYZ
    dof rx
    limits (0.0 90.0)
  end
  begin
     id 30
     name rthumb
     direction -0.707107 -6.34913e-011 0.707107   
     length 0.860789   
     axis -90 -45 -2.85299e-015   XYZ
    dof rx rz
    limits (-45.0 45.0)
           (-45.0 45.0)
  end
:hierarchy
  begin
    root lhipjoint rhipjoint lowerback
    lhipjoint lfemur
    lfemur ltibia
    ltibia lfoot
    lfoot ltoes
    rhipjoint rfemur
    rfemur rtibia
    rtibia rfoot
    rfoot rtoes
    lowerback upperback
    upperback thorax
    thorax lowerneck lclavicle rclavicle
    lowerneck upperneck
    upperneck head
    lclavicle lhumerus
    lhumerus lradius
    lradius lwrist
    lwrist lhand lthumb
    lhand lfingers
    rclavicle rhumerus
    rhumerus rradius
    rradius rwrist
    rwrist rhand rthumb
    rhand rfingers
  end

#!OML:ASF E:\mmandel\Project 1\Capture day 1\Session 2\Subject.ASF
:FULLY-SPECIFIED
:DEGREES
668
root 4.96066 14.1906 1.21326 434.745 83.4456 414.782
lowerback 17.5877 -0.347854 -3.36134
upperback 0.785899 -0.911886 1.51875
thorax -8.95419 -0.229295 3.785
lowerneck -18.8636 -1.22534 1.60973
upperneck 8.46631 -1.80739 -1.64204
head 5.57019 -0.949233 -0.961328
rclavicle 3.57812e-015 -4.77083e-015
rhumerus -14.7782 11.8975 -83.843
rradius 56.7843
rwrist -15.4748
rhand -12.922 29.9281
rfingers 7.12502
rthumb 13.1684 0.363983
lclavicle 3.57812e-015 -4.77083e-015
lhumerus -4.6059 -15.2416 76.704
lradius 44.0924
lwrist 32.8863
lhand -15.0905 -28.1353
lfingers 7.12502
lthumb 11.0775 1.55236
rfemur -62.8246 -13.168 9.81815
rtibia 76.4405
rfoot -33.312 -5.53591
rtoes -13.9534
lfemur -55.1019 19.9816 -14.5501
ltibia 63.6732
lfoot -22.895 -5.65216
ltoes -15.6146
669
root 4.96942 14.1909 1.20764 431.604 83.4561 411.549
lowerback 17.555 -0.346209 -3.35692
upperback 0.690128 -0.901138 1.63073
thorax -9.04057 -0.2192 3.90337
lowerneck -18.6278 -1.25598 1.38693
upperneck 8.3461 -1.82349 -1.39811
head 5.49862 -0.945369 -0.846568
rclavicle 3.1408e-014 3.18055e-015
rhumerus -15.5728 12.1715 -83.8418
rradius 57.5098
rwrist -15.5586
rhand -13.2138 29.9548
rfingers 7.12502
rthumb 12.8871 0.372646
lclavicle 3.1408e-014 3.18055e-015
lhumerus -4.94762 -15.353 76.877
lradius 43.6913
lwrist 32.1336
lhand -14.808 -27.6589
lfingers 7.12502
lthumb 11.35 2.01397
rfemur -62.9382 -12.8444 10.0093
rtibia 76.3737
rfoot -33.2343 -5.57676
rtoes -13.9865
lfemur -55.1406 20.3702 -14.4179
ltibia 63.7563
lfoot -23.0128 -5.55427
ltoes -16.1713
670
root 4.97949 14.1834 1.2096 424.206 83.4837 404.136
lowerback 17.5275 -0.160914 -3.3596
upperback 0.649072 -0.63779 1.84144
thorax -9.09235 -0.0866096 4.07038
lowerneck -18.4873 -1.32596 1.15548
upperneck 8.35238 -1.88763 -1.18637
head 5.48164 -0.968004 -0.74739
rclavicle -1.98785e-014 2.3059e-014
rhumerus -16.3131 12.426 -83.7812
rradius 58.1591
rwrist -15.7278
rhand -13.5465 30.1219
rfingers 7.12502
rthumb 12.5663 0.519851
lclavicle -1.98785e-014 2.3059e-014
lhumerus -5.31622 -15.6367 77.0873
lradius 43.2066
lwrist 31.3187
lhand -14.6233 -27.7382
lfingers 7.12502
lthumb 11.528 1.92476
rfemur -63.0568 -11.9483 10.4813
rtibia 76.3145
rfoot -33.2273 -5.73195
rtoes -14.0306
lfemur -55.0047 21.1817 -13.8715
ltibia 63.8859
lfoot -23.1158 -5.61285
ltoes -16.4047
671
root 4.99152 14.1855 1.20097 422.595 83.5108 402.675
lowerback 17.6011 -0.197323 -3.24125
upperback 0.706904 -0.655907 1.89672
thorax -9.06873 -0.0994115 4.06791
lowerneck -18.5119 -1.41779 1.19549
upperneck 8.36446 -2.02001 -1.19171
head 5.48715 -1.03169 -0.768759
rclavicle -4.37326e-015 -1.35174e-014
rhumerus -16.8055 12.4981 -83.7238
rradius 58.6884
rwrist -15.8444
rhand -13.6021 30.1225
rfingers 7.12502
rthumb 12.5127 0.517163
lclavicle -4.37326e-015 -1.35174e-014
lhumerus -5.38822 -16.046 77.1902
lradius 42.5472
lwrist 30.5247
lhand -14.5182 -28.194
lfingers 7.12502
lthumb 11.6294 1.46327
rfemur -62.8255 -11.7964 10.5548
rtibia 76.2527
rfoot -33.2681 -5.76229
rtoes -14.1209
lfemur -54.7469 21.227 -13.6618
ltibia 63.9504
lfoot -23.2463 -5.74866
ltoes -16.0317
672
root 5.00052 14.187 1.1914 422.219 83.3695 402.296
lowerback 17.5161 -0.254945 -3.33695
upperback 0.745864 -0.749266 1.88495
thorax -8.96848 -0.143419 4.13
lowerneck -18.6092 -1.44701 1.39689
upperneck 8.33268 -2.10231 -1.24344
head 5.48866 -1.06903 -0.826089
rclavicle -1.82882e-014 -8.74653e-015
rhumerus -17.2547 12.6542 -83.7056
rradius 59.2306
rwrist -15.9228
rhand -13.504 30.0256
rfingers 7.12502
rthumb 12.6074 0.42605
lclavicle -1.82882e-014 -8.74653e-015
lhumerus -5.33999 -16.3053 77.226
lradius 41.7983
lwrist 29.7449
lhand -14.3632 -28.4053
lfingers 7.12502
lthumb 11.7789 1.24352
rfemur -62.8121 -11.7811 10.4127
rtibia 76.2341
rfoot -33.2654 -5.58316
rtoes -13.8611
lfemur -54.6719 21.241 -13.7634
ltibia 64.0153
lfoot -23.3707 -5.77043
ltoes -15.5841
673
root 5.00826 14.1808 1.1822 421.248 83.24 401.332
lowerback 17.5053 -0.29721 -3.48238
upperback 0.76109 -0.828745 1.93155
thorax -8.93551 -0.175206 4.28328
lowerneck -18.6679 -1.44482 1.41082
upperneck 8.31105 -2.1131 -1.16756
head 5.49162 -1.06781 -0.805648
rclavicle 1.03368e-014 1.82882e-014
rhumerus -17.6433 12.8124 -83.6817
rradius 59.6262
rwrist -15.9229
rhand -13.4326 30.1071
rfingers 7.12502
rthumb 12.6762 0.51182
lclavicle 1.03368e-014 1.82882e-014
lhumerus -5.37452 -16.4489 77.3133
lradius 41.0607
lwrist 28.8678
lhand -14.1874 -28.5998
lfingers 7.12502
lthumb 11.9484 1.03922
rfemur -62.8362 -11.6791 10.3213
rtibia 76.238
rfoot -33.2639 -5.46277
rtoes -13.7598
lfemur -54.6223 21.3112 -13.7904
ltibia 64.0924
lfoot -23.4554 -5.6413
ltoes -15.8146
674
root 5.01495 14.1794 1.17145 420.179 83.1074 400.272
lowerback 17.4813 -0.353494 -3.51459
upperback 0.776822 -0.908254 1.93328
thorax -8.89636 -0.213174 4.32208
lowerneck -18.5542 -1.49281 1.23801
upperneck 8.19343 -2.16161 -0.9508
head 5.4399 -1.08054 -0.711902
rclavicle -3.06128e-014 7.15625e-015
rhumerus -17.9747 12.8531 -83.7105
rradius 59.9915
rwrist -15.9318
rhand -13.3247 30.1207
rfingers 7.12502
rthumb 12.7802 0.531868
lclavicle -3.06128e-014 7.15625e-015
lhumerus -5.46075 -16.5802 77.3556
lradius 40.3872
lwrist 28.001
lhand -14.0898 -28.9943
lfingers 7.12502
lthumb 12.0425 0.639256
rfemur -62.8443 -11.5808 10.2601
rtibia 76.2037
rfoot -33.1947 -5.50573
rtoes -13.9904
lfemur -54.5589 21.3762 -13.8185
ltibia 64.1644
lfoot -23.5256 -5.54263
ltoes -16.0091
675
root 5.02207 14.1825 1.15936 419.602 82.9334 399.671
lowerback 17.3915 -0.424597 -3.5135
upperback 0.801127 -1.00609 1.86197
thorax -8.81096 -0.264761 4.2642
lowerneck -18.5923 -1.51274 1.19574
upperneck 8.17054 -2.2002 -0.779025
head 5.44067 -1.08729 -0.654587
rclavicle -1.59028e-014 1.90833e-014
rhumerus -18.3838 12.9035 -83.8017
rradius 60.5188
rwrist -16.1175
rhand -13.3436 30.1778
rfingers 7.12502
rthumb 12.7619 0.587854
lclavicle -1.59028e-014 1.90833e-014
lhumerus -5.48869 -16.7536 77.3317
lradius 39.7255
lwrist 27.3597
lhand -13.8454 -29.1409
lfingers 7.12502
lthumb 12.2782 0.478693
rfemur -62.8653 -11.5505 10.1281
rtibia 76.165
rfoot -33.1139 -5.44846
rtoes -13.9105
lfemur -54.5041 21.398 -13.9428
ltibia 64.2304
lfoot -23.5635 -5.4799
ltoes -15.5672
676
root 5.02776 14.1819 1.14819 419.087 82.7631 399.082
lowerback 17.3594 -0.453204 -3.63433
upperback 0.767211 -1.06836 1.86306
thorax -8.82194 -0.289327 4.3497
lowerneck -18.8304 -1.49979 1.27545
upperneck 8.39719 -2.20147 -0.815513
head 5.54917 -1.08727 -0.683117
rclavicle -3.97569e-015 2.38542e-014
rhumerus -18.9522 13.0949 -83.7955
rradius 61.1041
rwrist -16.4222
rhand -13.4968 30.5458
rfingers 7.12502
rthumb 12.6143 0.946624
lclavicle -3.97569e-015 2.38542e-014
lhumerus -5.60396 -16.8608 77.476
lradius 39.1222
lwrist 26.881
lhand -13.237 -28.9294
lfingers 7.12502
lthumb 12.8647 0.654125
rfemur -62.9834 -11.488 9.98789
rtibia 76.1456
rfoot -33.0165 -5.3725
rtoes -13.7633
lfemur -54.5215 21.4066 -14.0683
ltibia 64.3026
lfoot -23.6194 -5.4618
ltoes -15.0417
